<svg height="472pt" viewBox="0 -3 472 471" width="472pt" xmlns="http://www.w3.org/2000/svg"><path d="m0 384.5h256v64c0 8.835938-7.164062 16-16 16h-224c-8.835938 0-16-7.164062-16-16zm0 0" fill="#c6c5ca"/><path d="m16 .5h224c8.835938 0 16 7.164062 16 16v48h-256v-48c0-8.835938 7.164062-16 16-16zm0 0" fill="#c6c5ca"/><path d="m0 64.5h256v320h-256zm0 0" fill="#78b9eb"/><path d="m256 87.699219v296.800781h-256v-11.359375c114.828125-63.871094 204.957031-164.363281 256-285.441406zm0 0" fill="#5aaae7"/><path d="m352 32.5c4.417969 0 8-3.582031 8-8v-16c0-4.417969-3.582031-8-8-8h-24v32zm0 0" fill="#ffb655"/><path d="m416 .5c-4.417969 0-8 3.582031-8 8v16c0 4.417969 3.582031 8 8 8h24v-32zm0 0" fill="#ffb655"/><g fill="#787680"><path d="m48 24.5h16v16h-16zm0 0"/><path d="m96 24.5h16v16h-16zm0 0"/><path d="m120 416.5h16v16h-16zm0 0"/></g><path d="m40 128.5h-16v-32c0-4.417969 3.582031-8 8-8h32v16h-24zm0 0" fill="#f1f2f2"/><path d="m304 320.5c-48.578125-.058594-87.941406-39.421875-88-88v-72c0-22.089844-17.910156-40-40-40s-40 17.910156-40 40v40h-16v-40c0-30.929688 25.070312-56 56-56s56 25.070312 56 56v72c0 39.765625 32.234375 72 72 72s72-32.234375 72-72v-16h16v16c-.058594 48.578125-39.421875 87.941406-88 88zm0 0" fill="#ff9478"/><path d="m144 312.5h16v16h-16zm0 0" fill="#ffc477"/><path d="m176 312.5h32v16h-32zm0 0" fill="#ffc477"/><path d="m144 344.5h64v16h-64zm0 0" fill="#ffc477"/><path d="m160 232.5c0 17.671875-14.328125 32-32 32s-32-14.328125-32-32 14.328125-32 32-32 32 14.328125 32 32zm0 0" fill="#ffde55"/><path d="m128 272.5c-22.089844 0-40-17.910156-40-40s17.910156-40 40-40 40 17.910156 40 40c-.027344 22.082031-17.917969 39.972656-40 40zm0-64c-13.253906 0-24 10.746094-24 24s10.746094 24 24 24 24-10.746094 24-24-10.746094-24-24-24zm0 0" fill="#ffb655"/><path d="m384 224.5c-48.578125-.058594-87.941406-39.421875-88-88v-120c0-4.417969 3.582031-8 8-8h24v16h-16v112c0 39.765625 32.234375 72 72 72s72-32.234375 72-72v-112h-16v-16h24c4.417969 0 8 3.582031 8 8v120c-.058594 48.578125-39.421875 87.941406-88 88zm0 0" fill="#ff7956"/></svg>